<mxfile host="Electron" agent="Mozilla/5.0 (Windows NT 10.0; Win64; x64) AppleWebKit/537.36 (KHTML, like Gecko) draw.io/26.0.4 Chrome/128.0.6613.186 Electron/32.2.5 Safari/537.36" version="26.0.4">
  <diagram name="Page-1" id="bUMnNJZnPzRGV-aBlFF6">
    <mxGraphModel dx="1092" dy="456" grid="1" gridSize="10" guides="1" tooltips="1" connect="1" arrows="1" fold="1" page="0" pageScale="1" pageWidth="850" pageHeight="1100" math="0" shadow="0">
      <root>
        <mxCell id="0" />
        <mxCell id="1" parent="0" />
        <mxCell id="zutfBqKb86GWguaDNmRD-29" value="&lt;font style=&quot;font-size: 8px;&quot;&gt;5G Network&lt;/font&gt;" style="rounded=0;whiteSpace=wrap;html=1;fillColor=#dae8fc;strokeColor=#6c8ebf;dashed=1;" vertex="1" parent="1">
          <mxGeometry x="273" y="159" width="270" height="100" as="geometry" />
        </mxCell>
        <mxCell id="zutfBqKb86GWguaDNmRD-5" style="edgeStyle=orthogonalEdgeStyle;rounded=0;orthogonalLoop=1;jettySize=auto;html=1;exitX=1;exitY=0.5;exitDx=0;exitDy=0;entryX=1;entryY=0.5;entryDx=0;entryDy=0;endArrow=none;endFill=0;" edge="1" parent="1" source="zutfBqKb86GWguaDNmRD-1" target="zutfBqKb86GWguaDNmRD-4">
          <mxGeometry relative="1" as="geometry" />
        </mxCell>
        <mxCell id="zutfBqKb86GWguaDNmRD-8" style="edgeStyle=orthogonalEdgeStyle;rounded=0;orthogonalLoop=1;jettySize=auto;html=1;exitX=1;exitY=0;exitDx=0;exitDy=0;entryX=1;entryY=0.5;entryDx=0;entryDy=0;endArrow=none;endFill=0;" edge="1" parent="1" source="zutfBqKb86GWguaDNmRD-1" target="zutfBqKb86GWguaDNmRD-7">
          <mxGeometry relative="1" as="geometry" />
        </mxCell>
        <mxCell id="zutfBqKb86GWguaDNmRD-1" value="5G Hat" style="rounded=0;whiteSpace=wrap;html=1;" vertex="1" parent="1">
          <mxGeometry x="143" y="289" width="160" height="60" as="geometry" />
        </mxCell>
        <mxCell id="zutfBqKb86GWguaDNmRD-3" style="edgeStyle=orthogonalEdgeStyle;rounded=0;orthogonalLoop=1;jettySize=auto;html=1;exitX=0.5;exitY=1;exitDx=0;exitDy=0;" edge="1" parent="1" source="zutfBqKb86GWguaDNmRD-1" target="zutfBqKb86GWguaDNmRD-1">
          <mxGeometry relative="1" as="geometry" />
        </mxCell>
        <mxCell id="zutfBqKb86GWguaDNmRD-4" value="Raspberry Pi" style="rounded=0;whiteSpace=wrap;html=1;" vertex="1" parent="1">
          <mxGeometry x="143" y="349" width="160" height="60" as="geometry" />
        </mxCell>
        <mxCell id="zutfBqKb86GWguaDNmRD-6" value="USB" style="text;html=1;align=center;verticalAlign=middle;resizable=0;points=[];autosize=1;strokeColor=none;fillColor=none;" vertex="1" parent="1">
          <mxGeometry x="323" y="329" width="50" height="30" as="geometry" />
        </mxCell>
        <mxCell id="zutfBqKb86GWguaDNmRD-7" value="" style="triangle;whiteSpace=wrap;html=1;rotation=90;" vertex="1" parent="1">
          <mxGeometry x="293" y="199" width="20" height="30" as="geometry" />
        </mxCell>
        <mxCell id="zutfBqKb86GWguaDNmRD-10" value="" style="shape=delay;whiteSpace=wrap;html=1;rotation=-90;fillColor=#f8cecc;strokeColor=#b85450;" vertex="1" parent="1">
          <mxGeometry x="183" y="217.75" width="30" height="32.5" as="geometry" />
        </mxCell>
        <mxCell id="zutfBqKb86GWguaDNmRD-11" value="" style="endArrow=none;html=1;rounded=0;exitX=0.313;exitY=0;exitDx=0;exitDy=0;exitPerimeter=0;" edge="1" parent="1" source="zutfBqKb86GWguaDNmRD-1">
          <mxGeometry width="50" height="50" relative="1" as="geometry">
            <mxPoint x="143" y="299" as="sourcePoint" />
            <mxPoint x="193" y="249" as="targetPoint" />
          </mxGeometry>
        </mxCell>
        <mxCell id="zutfBqKb86GWguaDNmRD-12" value="" style="endArrow=none;html=1;rounded=0;exitX=0.313;exitY=0;exitDx=0;exitDy=0;exitPerimeter=0;" edge="1" parent="1">
          <mxGeometry width="50" height="50" relative="1" as="geometry">
            <mxPoint x="203" y="289" as="sourcePoint" />
            <mxPoint x="203" y="249" as="targetPoint" />
          </mxGeometry>
        </mxCell>
        <mxCell id="zutfBqKb86GWguaDNmRD-14" value="RPi&lt;div&gt;Camera&lt;/div&gt;" style="whiteSpace=wrap;html=1;aspect=fixed;" vertex="1" parent="1">
          <mxGeometry x="-17" y="329" width="80" height="80" as="geometry" />
        </mxCell>
        <mxCell id="zutfBqKb86GWguaDNmRD-15" style="edgeStyle=orthogonalEdgeStyle;rounded=0;orthogonalLoop=1;jettySize=auto;html=1;entryX=0;entryY=0.333;entryDx=0;entryDy=0;entryPerimeter=0;endArrow=none;endFill=0;" edge="1" parent="1" source="zutfBqKb86GWguaDNmRD-14" target="zutfBqKb86GWguaDNmRD-4">
          <mxGeometry relative="1" as="geometry" />
        </mxCell>
        <mxCell id="zutfBqKb86GWguaDNmRD-16" style="edgeStyle=orthogonalEdgeStyle;rounded=0;orthogonalLoop=1;jettySize=auto;html=1;exitX=1;exitY=0;exitDx=0;exitDy=0;entryX=1;entryY=0.5;entryDx=0;entryDy=0;endArrow=none;endFill=0;" edge="1" parent="1" target="zutfBqKb86GWguaDNmRD-19">
          <mxGeometry relative="1" as="geometry">
            <mxPoint x="503" y="289" as="sourcePoint" />
          </mxGeometry>
        </mxCell>
        <mxCell id="zutfBqKb86GWguaDNmRD-17" value="5G Hat" style="rounded=0;whiteSpace=wrap;html=1;" vertex="1" parent="1">
          <mxGeometry x="503" y="289" width="160" height="60" as="geometry" />
        </mxCell>
        <mxCell id="zutfBqKb86GWguaDNmRD-18" value="Raspberry Pi" style="rounded=0;whiteSpace=wrap;html=1;" vertex="1" parent="1">
          <mxGeometry x="503" y="349" width="160" height="60" as="geometry" />
        </mxCell>
        <mxCell id="zutfBqKb86GWguaDNmRD-19" value="" style="triangle;whiteSpace=wrap;html=1;rotation=90;" vertex="1" parent="1">
          <mxGeometry x="493" y="199" width="20" height="30" as="geometry" />
        </mxCell>
        <mxCell id="zutfBqKb86GWguaDNmRD-22" value="MEC&lt;br&gt;(Laptop)" style="rounded=0;whiteSpace=wrap;html=1;" vertex="1" parent="1">
          <mxGeometry x="743" y="289" width="120" height="80" as="geometry" />
        </mxCell>
        <mxCell id="zutfBqKb86GWguaDNmRD-23" style="edgeStyle=orthogonalEdgeStyle;rounded=0;orthogonalLoop=1;jettySize=auto;html=1;exitX=0;exitY=0.5;exitDx=0;exitDy=0;entryX=1.003;entryY=0.653;entryDx=0;entryDy=0;entryPerimeter=0;endArrow=none;endFill=0;" edge="1" parent="1" source="zutfBqKb86GWguaDNmRD-22" target="zutfBqKb86GWguaDNmRD-17">
          <mxGeometry relative="1" as="geometry" />
        </mxCell>
        <mxCell id="zutfBqKb86GWguaDNmRD-24" value="USB" style="text;html=1;align=center;verticalAlign=middle;resizable=0;points=[];autosize=1;strokeColor=none;fillColor=none;" vertex="1" parent="1">
          <mxGeometry x="673" y="299" width="50" height="30" as="geometry" />
        </mxCell>
        <mxCell id="zutfBqKb86GWguaDNmRD-25" value="&lt;font style=&quot;font-size: 7px;&quot;&gt;GND&lt;/font&gt;" style="text;html=1;align=center;verticalAlign=middle;resizable=0;points=[];autosize=1;strokeColor=none;fillColor=none;" vertex="1" parent="1">
          <mxGeometry x="203" y="259" width="40" height="30" as="geometry" />
        </mxCell>
        <mxCell id="zutfBqKb86GWguaDNmRD-26" value="&lt;font style=&quot;font-size: 7px;&quot;&gt;GPIO 22&lt;/font&gt;" style="text;html=1;align=center;verticalAlign=middle;resizable=0;points=[];autosize=1;strokeColor=none;fillColor=none;" vertex="1" parent="1">
          <mxGeometry x="143" y="259" width="50" height="30" as="geometry" />
        </mxCell>
        <mxCell id="zutfBqKb86GWguaDNmRD-27" value="&lt;font style=&quot;font-size: 7px;&quot;&gt;LED&lt;/font&gt;" style="text;html=1;align=center;verticalAlign=middle;resizable=0;points=[];autosize=1;strokeColor=none;fillColor=none;" vertex="1" parent="1">
          <mxGeometry x="178" y="187.75" width="40" height="30" as="geometry" />
        </mxCell>
        <mxCell id="zutfBqKb86GWguaDNmRD-30" value="Reciever Side" style="text;html=1;align=center;verticalAlign=middle;resizable=0;points=[];autosize=1;strokeColor=none;fillColor=none;" vertex="1" parent="1">
          <mxGeometry x="528" y="409" width="100" height="30" as="geometry" />
        </mxCell>
        <mxCell id="zutfBqKb86GWguaDNmRD-31" value="Transmitting Side" style="text;html=1;align=center;verticalAlign=middle;resizable=0;points=[];autosize=1;strokeColor=none;fillColor=none;" vertex="1" parent="1">
          <mxGeometry x="163" y="409" width="120" height="30" as="geometry" />
        </mxCell>
        <mxCell id="zutfBqKb86GWguaDNmRD-35" value="Start" style="ellipse;whiteSpace=wrap;html=1;" vertex="1" parent="1">
          <mxGeometry x="-40" y="520" width="80" height="40" as="geometry" />
        </mxCell>
        <mxCell id="zutfBqKb86GWguaDNmRD-37" value="&lt;font style=&quot;font-size: 10px;&quot;&gt;Establish SSH connection with transmitting Pi&lt;/font&gt;" style="rounded=0;whiteSpace=wrap;html=1;" vertex="1" parent="1">
          <mxGeometry x="-60" y="600" width="120" height="60" as="geometry" />
        </mxCell>
        <mxCell id="zutfBqKb86GWguaDNmRD-38" value="&lt;font style=&quot;font-size: 10px;&quot;&gt;Initialize camera with URL&lt;/font&gt;" style="rounded=0;whiteSpace=wrap;html=1;" vertex="1" parent="1">
          <mxGeometry x="-60" y="700" width="120" height="60" as="geometry" />
        </mxCell>
        <mxCell id="zutfBqKb86GWguaDNmRD-39" value="&lt;u&gt;&lt;b&gt;Receiving Side&lt;/b&gt;&lt;/u&gt;" style="text;html=1;align=center;verticalAlign=middle;resizable=0;points=[];autosize=1;strokeColor=none;fillColor=none;" vertex="1" parent="1">
          <mxGeometry x="-75" y="458" width="110" height="30" as="geometry" />
        </mxCell>
        <mxCell id="zutfBqKb86GWguaDNmRD-40" value="&lt;font style=&quot;font-size: 10px;&quot;&gt;Is camera &lt;br&gt;open?&lt;/font&gt;" style="rhombus;whiteSpace=wrap;html=1;" vertex="1" parent="1">
          <mxGeometry x="-45" y="800" width="90" height="60" as="geometry" />
        </mxCell>
        <mxCell id="zutfBqKb86GWguaDNmRD-41" value="&lt;span style=&quot;font-size: 10px;&quot;&gt;Is key &#39;q&#39;&lt;/span&gt;&lt;div&gt;&lt;span style=&quot;font-size: 10px;&quot;&gt;pressed?&lt;/span&gt;&lt;/div&gt;" style="rhombus;whiteSpace=wrap;html=1;" vertex="1" parent="1">
          <mxGeometry x="-45" y="900" width="90" height="60" as="geometry" />
        </mxCell>
        <mxCell id="zutfBqKb86GWguaDNmRD-44" value="&lt;font style=&quot;font-size: 10px;&quot;&gt;Capture frames&lt;/font&gt;&lt;div&gt;&lt;font style=&quot;font-size: 10px;&quot;&gt;cap.read()&lt;/font&gt;&lt;/div&gt;" style="rounded=0;whiteSpace=wrap;html=1;" vertex="1" parent="1">
          <mxGeometry x="80" y="900" width="80" height="60" as="geometry" />
        </mxCell>
        <mxCell id="zutfBqKb86GWguaDNmRD-45" value="&lt;span style=&quot;font-size: 10px;&quot;&gt;Encode each frame&lt;/span&gt;&lt;div&gt;&lt;span style=&quot;font-size: 10px;&quot;&gt;as jpeg image&lt;/span&gt;&lt;/div&gt;&lt;div&gt;&lt;span style=&quot;font-size: 10px;&quot;&gt;cv2.imencode()&lt;/span&gt;&lt;/div&gt;&lt;div&gt;&lt;span style=&quot;font-size: 10px;&quot;&gt;&lt;br&gt;&lt;/span&gt;&lt;/div&gt;" style="rounded=0;whiteSpace=wrap;html=1;" vertex="1" parent="1">
          <mxGeometry x="200" y="900" width="100" height="60" as="geometry" />
        </mxCell>
        <mxCell id="zutfBqKb86GWguaDNmRD-46" value="&lt;div&gt;&lt;span style=&quot;font-size: 10px;&quot;&gt;Send to server to do Face Detection&lt;/span&gt;&lt;/div&gt;&lt;div&gt;&lt;span style=&quot;font-size: 10px;&quot;&gt;requests.post()&lt;/span&gt;&lt;/div&gt;" style="rounded=0;whiteSpace=wrap;html=1;" vertex="1" parent="1">
          <mxGeometry x="340" y="900" width="100" height="60" as="geometry" />
        </mxCell>
        <mxCell id="zutfBqKb86GWguaDNmRD-47" value="&lt;div&gt;&lt;span style=&quot;font-size: 10px;&quot;&gt;Extract No. of faces&lt;/span&gt;&lt;/div&gt;&lt;div&gt;&lt;span style=&quot;font-size: 10px;&quot;&gt;num_prediction_json&lt;/span&gt;&lt;/div&gt;" style="rounded=0;whiteSpace=wrap;html=1;" vertex="1" parent="1">
          <mxGeometry x="480" y="900" width="100" height="60" as="geometry" />
        </mxCell>
        <mxCell id="zutfBqKb86GWguaDNmRD-48" value="&lt;span style=&quot;font-size: 10px;&quot;&gt;Is No. of&lt;/span&gt;&lt;div&gt;&lt;span style=&quot;font-size: 10px;&quot;&gt;faces ==1?&lt;/span&gt;&lt;/div&gt;" style="rhombus;whiteSpace=wrap;html=1;" vertex="1" parent="1">
          <mxGeometry x="640" y="970" width="90" height="60" as="geometry" />
        </mxCell>
        <mxCell id="zutfBqKb86GWguaDNmRD-49" value="&lt;div&gt;&lt;span style=&quot;font-size: 10px;&quot;&gt;Draw a box around the face&lt;/span&gt;&lt;/div&gt;&lt;div&gt;&lt;span style=&quot;font-size: 10px;&quot;&gt;cv2.rectangle()&lt;/span&gt;&lt;/div&gt;" style="rounded=0;whiteSpace=wrap;html=1;" vertex="1" parent="1">
          <mxGeometry x="480" y="980" width="120" height="60" as="geometry" />
        </mxCell>
        <mxCell id="zutfBqKb86GWguaDNmRD-50" value="&lt;div&gt;&lt;span style=&quot;font-size: 10px;&quot;&gt;Save frame as image file&lt;/span&gt;&lt;/div&gt;&lt;div&gt;&lt;span style=&quot;font-size: 10px;&quot;&gt;cv2.imwrite()&lt;/span&gt;&lt;/div&gt;" style="rounded=0;whiteSpace=wrap;html=1;" vertex="1" parent="1">
          <mxGeometry x="313" y="980" width="100" height="60" as="geometry" />
        </mxCell>
        <mxCell id="zutfBqKb86GWguaDNmRD-51" value="&lt;div&gt;&lt;span style=&quot;font-size: 10px;&quot;&gt;Send to server to do Face Recognition and get response&lt;/span&gt;&lt;/div&gt;&lt;div&gt;&lt;span style=&quot;font-size: 10px;&quot;&gt;result = recognize_face()&lt;/span&gt;&lt;/div&gt;" style="rounded=0;whiteSpace=wrap;html=1;" vertex="1" parent="1">
          <mxGeometry x="80" y="980" width="160" height="60" as="geometry" />
        </mxCell>
      </root>
    </mxGraphModel>
  </diagram>
</mxfile>
